<?xml version="1.0" encoding="utf-8"?>
<!-- Generator: Adobe Illustrator 18.1.1, SVG Export Plug-In . SVG Version: 6.00 Build 0)  -->
<svg version="1.1" id="Layer_1" xmlns="http://www.w3.org/2000/svg" xmlns:xlink="http://www.w3.org/1999/xlink" x="0px" y="0px"
	 viewBox="0 0 800 800" enable-background="new 0 0 800 800" xml:space="preserve">
<g>
	<path fill="#E63C2F" d="M400,219.4v16H134.4c-21.2,0-38.4-17.2-38.4-38.4c0-21.2,17.2-38.4,38.4-38.4v16
		c-12.4,0-22.4,10.1-22.4,22.4c0,12.4,10.1,22.4,22.4,22.4H400z"/>
	<path fill="#E63C2F" d="M112,319.1c0,12.4,10.1,22.4,22.4,22.4L400,341v16l-265.5,0.5c-21.2,0-38.5-17.2-38.5-38.4
		c0-21.2,17.2-38.4,38.4-38.4l265.6-0.2v16l-265.6,0.2C122.1,296.7,112,306.7,112,319.1z"/>
	<path fill="#007CBA" d="M669.2,296.2L400,296.5v-16l269.2-0.2c12.4,0,22.5-10.1,22.5-22.4s-10.1-22.4-22.4-22.4H400v-16h269.2
		c21.2,0,38.4,17.2,38.4,38.4C707.6,279,690.4,296.2,669.2,296.2z"/>
	<path fill="#E63C2F" d="M115,440.5c0,12.4,10.1,22.4,22.4,22.4H400v16H137.4c-21.2,0-38.4-17.2-38.4-38.4
		c0-21.2,17.2-38.4,38.4-38.4l262.6-0.4v16l-262.6,0.4C125,418.1,115,428.2,115,440.5z"/>
	<path fill="#007CBA" d="M669.2,417.3L400,417.7v-16l269.2-0.4c12.4,0,22.5-10.1,22.5-22.4c0-12.4-10.1-22.4-22.4-22.4L400,357v-16
		l269.2-0.5c21.2,0,38.5,17.2,38.5,38.4C707.6,400.1,690.4,417.3,669.2,417.3z"/>
	<path fill="#E63C2F" d="M115,562.7c0,12.4,10.1,22.4,22.4,22.4l262.6-0.5v16l-262.6,0.5c-21.2,0-38.5-17.2-38.5-38.4
		c0-21.2,17.2-38.4,38.4-38.4L400,524v16l-262.6,0.2C125,540.3,115,550.3,115,562.7z"/>
	<path fill="#007CBA" d="M710.6,622.5c0,21.2-17.2,38.4-38.4,38.4v-16c12.4,0,22.4-10.1,22.4-22.4S684.5,600,672.2,600L400,600.6
		v-16l272.2-0.5C693.4,584,710.6,601.3,710.6,622.5z"/>
	<path fill="#007CBA" d="M672.2,539.8L400,540v-16l272.2-0.2c12.4,0,22.4-10.1,22.4-22.4S684.5,479,672.2,479H400v-16h272.2
		c21.2,0,38.4,17.2,38.4,38.4C710.6,522.6,693.4,539.8,672.2,539.8z"/>
</g>
</svg>
