<?xml version="1.0" encoding="utf-8"?>
<!-- Generator: Adobe Illustrator 18.1.1, SVG Export Plug-In . SVG Version: 6.00 Build 0)  -->
<svg version="1.1" id="Layer_1" xmlns="http://www.w3.org/2000/svg" xmlns:xlink="http://www.w3.org/1999/xlink" x="0px" y="0px"
	 viewBox="-383 145 512 512" enable-background="new -383 145 512 512" xml:space="preserve">
<g id="google-plus-icon">
	<path d="M37.8,309.3H-5.9V353h-21.8v-43.7h-43.7v-21.8h43.7v-43.7h21.8v43.7h43.7V309.3z M-85.7,490c0,32.8-29.9,72.6-105.1,72.6
		c-55,0-100.9-23.7-100.9-63.7c0-30.8,19.5-70.8,110.7-70.8c-13.5-11-16.9-26.5-8.6-43.2c-53.4,0-80.7-31.4-80.7-71.2
		c0-39,29-74.4,88.1-74.4c14.9,0,94.7,0,94.7,0l-21.2,22.2h-24.9c17.5,10,26.9,30.7,26.9,53.6c0,20.9-11.5,37.9-28,50.6
		c-29.2,22.6-21.7,35.2,8.9,57.5C-95.7,445.9-85.7,463.3-85.7,490z M-144.8,316.6c-4.4-33.5-26.2-61-51.8-61.8
		c-25.5-0.8-42.6,24.9-38.2,58.4c4.4,33.5,28.7,56.9,54.2,57.7C-155.1,371.7-140.4,350.1-144.8,316.6z M-118.5,493.4
		c0-27.6-25.2-53.9-67.4-53.9c-38-0.4-70.3,24-70.3,52.4c0,28.9,27.5,53,65.5,53C-142,544.9-118.5,522.3-118.5,493.4z"/>
</g>
</svg>
