<?xml version="1.0" encoding="utf-8"?>
<!-- Generator: Adobe Illustrator 18.1.1, SVG Export Plug-In . SVG Version: 6.00 Build 0)  -->
<svg version="1.1" id="Layer_1" xmlns="http://www.w3.org/2000/svg" xmlns:xlink="http://www.w3.org/1999/xlink" x="0px" y="0px"
	 viewBox="0 0 800 800" enable-background="new 0 0 800 800" xml:space="preserve">
<g>
	<path fill="#007CBA" d="M737,166.5v17c-19.2,0-28.1,4.2-38.5,9.2c-10.7,5.1-22.8,10.8-45.8,10.8c-23,0-35.1-5.8-45.8-10.8
		c-10.4-4.9-19.3-9.2-38.5-9.2c-19.1,0-28.1,4.2-38.5,9.2c-10.7,5.1-22.8,10.8-45.8,10.8s-35.1-5.8-45.8-10.8
		c-10.4-4.9-19.3-9.2-38.5-9.2v-17c23,0,35.1,5.8,45.8,10.8c10.4,4.9,19.3,9.2,38.5,9.2c19.2,0,28.1-4.2,38.5-9.2
		c10.7-5.1,22.8-10.8,45.8-10.8s35.1,5.8,45.8,10.8c10.4,4.9,19.3,9.2,38.5,9.2c19.1,0,28.1-4.2,38.5-9.2
		C701.9,172.2,714,166.5,737,166.5z"/>
	<path fill="#E63C2F" d="M400,166.5v17h0c-19.1,0-28.1,4.2-38.5,9.2c-10.7,5.1-22.8,10.8-45.8,10.8c-23,0-35.1-5.8-45.8-10.8
		c-10.4-4.9-19.3-9.2-38.5-9.2c-19.2,0-28.1,4.2-38.5,9.2c-10.7,5.1-22.8,10.8-45.8,10.8c-23,0-35.1-5.8-45.8-10.8
		c-10.4-4.9-19.3-9.2-38.5-9.2v-17c23,0,35.1,5.8,45.8,10.8c10.4,4.9,19.3,9.2,38.5,9.2c19.1,0,28.1-4.2,38.5-9.2
		c10.7-5.1,22.8-10.8,45.8-10.8c23,0,35.1,5.8,45.8,10.8c10.4,4.9,19.3,9.2,38.5,9.2c19.2,0,28.1-4.2,38.5-9.2
		C364.9,172.2,377,166.5,400,166.5L400,166.5z"/>
</g>
<g>
	<path fill="#007CBA" d="M737,229.4v17c-19.2,0-28.1,4.2-38.5,9.2c-10.7,5.1-22.8,10.8-45.8,10.8c-23,0-35.1-5.8-45.8-10.8
		c-10.4-4.9-19.3-9.2-38.5-9.2c-19.1,0-28.1,4.2-38.5,9.2c-10.7,5.1-22.8,10.8-45.8,10.8s-35.1-5.8-45.8-10.8
		c-10.4-4.9-19.3-9.2-38.5-9.2v-17c23,0,35.1,5.8,45.8,10.8c10.4,4.9,19.3,9.2,38.5,9.2c19.2,0,28.1-4.3,38.5-9.2
		c10.7-5.1,22.8-10.8,45.8-10.8s35.1,5.8,45.8,10.8c10.4,4.9,19.3,9.2,38.5,9.2c19.1,0,28.1-4.3,38.5-9.2
		C701.9,235.1,714,229.4,737,229.4z"/>
	<path fill="#E63C2F" d="M400,229.4v17h0c-19.1,0-28.1,4.2-38.5,9.2c-10.7,5.1-22.8,10.8-45.8,10.8c-23,0-35.1-5.8-45.8-10.8
		c-10.4-4.9-19.3-9.2-38.5-9.2c-19.2,0-28.1,4.2-38.5,9.2c-10.7,5.1-22.8,10.8-45.8,10.8c-23,0-35.1-5.8-45.8-10.8
		c-10.4-4.9-19.3-9.2-38.5-9.2v-17c23,0,35.1,5.8,45.8,10.8c10.4,4.9,19.3,9.2,38.5,9.2c19.1,0,28.1-4.3,38.5-9.2
		c10.7-5.1,22.8-10.8,45.8-10.8c23,0,35.1,5.8,45.8,10.8c10.4,4.9,19.3,9.2,38.5,9.2c19.2,0,28.1-4.3,38.5-9.2
		C364.9,235.1,377,229.4,400,229.4L400,229.4z"/>
</g>
<g>
	<path fill="#007CBA" d="M737,292.2v17c-19.2,0-28.1,4.3-38.5,9.2c-10.7,5.1-22.8,10.8-45.8,10.8c-23,0-35.1-5.7-45.8-10.8
		c-10.4-4.9-19.3-9.2-38.5-9.2c-19.1,0-28.1,4.3-38.5,9.2c-10.7,5.1-22.8,10.8-45.8,10.8s-35.1-5.7-45.8-10.8
		c-10.4-4.9-19.3-9.2-38.5-9.2v-17c23,0,35.1,5.8,45.8,10.8c10.4,4.9,19.3,9.2,38.5,9.2c19.2,0,28.1-4.2,38.5-9.2
		c10.7-5.1,22.8-10.8,45.8-10.8s35.1,5.8,45.8,10.8c10.4,4.9,19.3,9.2,38.5,9.2c19.1,0,28.1-4.2,38.5-9.2
		C701.9,298,714,292.2,737,292.2z"/>
	<path fill="#E63C2F" d="M400,292.2v17h0c-19.1,0-28.1,4.3-38.5,9.2c-10.7,5.1-22.8,10.8-45.8,10.8c-23,0-35.1-5.7-45.8-10.8
		c-10.4-4.9-19.3-9.2-38.5-9.2c-19.2,0-28.1,4.3-38.5,9.2c-10.7,5.1-22.8,10.8-45.8,10.8c-23,0-35.1-5.7-45.8-10.8
		c-10.4-4.9-19.3-9.2-38.5-9.2v-17c23,0,35.1,5.8,45.8,10.8c10.4,4.9,19.3,9.2,38.5,9.2c19.1,0,28.1-4.2,38.5-9.2
		c10.7-5.1,22.8-10.8,45.8-10.8c23,0,35.1,5.8,45.8,10.8c10.4,4.9,19.3,9.2,38.5,9.2c19.2,0,28.1-4.2,38.5-9.2
		C364.9,298,377,292.2,400,292.2L400,292.2z"/>
</g>
<g>
	<path fill="#007CBA" d="M737,355.1v17c-19.2,0-28.1,4.2-38.5,9.2c-10.7,5.1-22.8,10.8-45.8,10.8c-23,0-35.1-5.8-45.8-10.8
		c-10.4-4.9-19.3-9.2-38.5-9.2c-19.1,0-28.1,4.2-38.5,9.2c-10.7,5.1-22.8,10.8-45.8,10.8s-35.1-5.8-45.8-10.8
		c-10.4-4.9-19.3-9.2-38.5-9.2v-17c23,0,35.1,5.8,45.8,10.8c10.4,4.9,19.3,9.2,38.5,9.2c19.2,0,28.1-4.2,38.5-9.2
		c10.7-5.1,22.8-10.8,45.8-10.8s35.1,5.8,45.8,10.8c10.4,4.9,19.3,9.2,38.5,9.2c19.1,0,28.1-4.2,38.5-9.2
		C701.9,360.8,714,355.1,737,355.1z"/>
	<path fill="#E63C2F" d="M400,355.1v17h0c-19.1,0-28.1,4.2-38.5,9.2c-10.7,5.1-22.8,10.8-45.8,10.8c-23,0-35.1-5.8-45.8-10.8
		c-10.4-4.9-19.3-9.2-38.5-9.2c-19.2,0-28.1,4.2-38.5,9.2c-10.7,5.1-22.8,10.8-45.8,10.8c-23,0-35.1-5.8-45.8-10.8
		c-10.4-4.9-19.3-9.2-38.5-9.2v-17c23,0,35.1,5.8,45.8,10.8c10.4,4.9,19.3,9.2,38.5,9.2c19.1,0,28.1-4.2,38.5-9.2
		c10.7-5.1,22.8-10.8,45.8-10.8c23,0,35.1,5.8,45.8,10.8c10.4,4.9,19.3,9.2,38.5,9.2c19.2,0,28.1-4.2,38.5-9.2
		C364.9,360.8,377,355.1,400,355.1L400,355.1z"/>
</g>
<g>
	<path fill="#007CBA" d="M737,417.9v17c-19.2,0-28.1,4.2-38.5,9.2c-10.7,5.1-22.8,10.8-45.8,10.8c-23,0-35.1-5.8-45.8-10.8
		c-10.4-4.9-19.3-9.2-38.5-9.2c-19.1,0-28.1,4.2-38.5,9.2c-10.7,5.1-22.8,10.8-45.8,10.8s-35.1-5.8-45.8-10.8
		c-10.4-4.9-19.3-9.2-38.5-9.2v-17c23,0,35.1,5.8,45.8,10.8c10.4,4.9,19.3,9.2,38.5,9.2c19.2,0,28.1-4.3,38.5-9.2
		c10.7-5.1,22.8-10.8,45.8-10.8s35.1,5.8,45.8,10.8c10.4,4.9,19.3,9.2,38.5,9.2c19.1,0,28.1-4.3,38.5-9.2
		C701.9,423.7,714,417.9,737,417.9z"/>
	<path fill="#E63C2F" d="M400,417.9v17h0c-19.1,0-28.1,4.2-38.5,9.2c-10.7,5.1-22.8,10.8-45.8,10.8c-23,0-35.1-5.8-45.8-10.8
		c-10.4-4.9-19.3-9.2-38.5-9.2c-19.2,0-28.1,4.2-38.5,9.2c-10.7,5.1-22.8,10.8-45.8,10.8c-23,0-35.1-5.8-45.8-10.8
		c-10.4-4.9-19.3-9.2-38.5-9.2v-17c23,0,35.1,5.8,45.8,10.8c10.4,4.9,19.3,9.2,38.5,9.2c19.1,0,28.1-4.3,38.5-9.2
		c10.7-5.1,22.8-10.8,45.8-10.8c23,0,35.1,5.8,45.8,10.8c10.4,4.9,19.3,9.2,38.5,9.2c19.2,0,28.1-4.3,38.5-9.2
		C364.9,423.7,377,417.9,400,417.9L400,417.9z"/>
</g>
<g>
	<path fill="#007CBA" d="M737,480.8v17c-19.2,0-28.1,4.2-38.5,9.2c-10.7,5.1-22.8,10.8-45.8,10.8c-23,0-35.1-5.8-45.8-10.8
		c-10.4-4.9-19.3-9.2-38.5-9.2c-19.1,0-28.1,4.2-38.5,9.2c-10.7,5.1-22.8,10.8-45.8,10.8s-35.1-5.8-45.8-10.8
		c-10.4-4.9-19.3-9.2-38.5-9.2v-17c23,0,35.1,5.8,45.8,10.8c10.4,4.9,19.3,9.2,38.5,9.2c19.2,0,28.1-4.3,38.5-9.2
		c10.7-5.1,22.8-10.8,45.8-10.8s35.1,5.8,45.8,10.8c10.4,4.9,19.3,9.2,38.5,9.2c19.1,0,28.1-4.3,38.5-9.2
		C701.9,486.5,714,480.8,737,480.8z"/>
	<path fill="#E63C2F" d="M400,480.8v17h0c-19.1,0-28.1,4.2-38.5,9.2c-10.7,5.1-22.8,10.8-45.8,10.8c-23,0-35.1-5.8-45.8-10.8
		c-10.4-4.9-19.3-9.2-38.5-9.2c-19.2,0-28.1,4.2-38.5,9.2c-10.7,5.1-22.8,10.8-45.8,10.8c-23,0-35.1-5.8-45.8-10.8
		c-10.4-4.9-19.3-9.2-38.5-9.2v-17c23,0,35.1,5.8,45.8,10.8c10.4,4.9,19.3,9.2,38.5,9.2c19.1,0,28.1-4.3,38.5-9.2
		c10.7-5.1,22.8-10.8,45.8-10.8c23,0,35.1,5.8,45.8,10.8c10.4,4.9,19.3,9.2,38.5,9.2c19.2,0,28.1-4.3,38.5-9.2
		C364.9,486.5,377,480.8,400,480.8L400,480.8z"/>
</g>
<g>
	<path fill="#007CBA" d="M737,543.6v17c-19.2,0-28.1,4.3-38.5,9.2c-10.7,5.1-22.8,10.8-45.8,10.8c-23,0-35.1-5.8-45.8-10.8
		c-10.4-4.9-19.3-9.2-38.5-9.2c-19.1,0-28.1,4.3-38.5,9.2c-10.7,5.1-22.8,10.8-45.8,10.8s-35.1-5.8-45.8-10.8
		c-10.4-4.9-19.3-9.2-38.5-9.2v-17c23,0,35.1,5.8,45.8,10.8c10.4,4.9,19.3,9.2,38.5,9.2c19.2,0,28.1-4.2,38.5-9.2
		c10.7-5.1,22.8-10.8,45.8-10.8s35.1,5.8,45.8,10.8c10.4,4.9,19.3,9.2,38.5,9.2c19.1,0,28.1-4.2,38.5-9.2
		C701.9,549.4,714,543.6,737,543.6z"/>
	<path fill="#E63C2F" d="M400,543.6v17h0c-19.1,0-28.1,4.3-38.5,9.2c-10.7,5.1-22.8,10.8-45.8,10.8c-23,0-35.1-5.8-45.8-10.8
		c-10.4-4.9-19.3-9.2-38.5-9.2c-19.2,0-28.1,4.3-38.5,9.2c-10.7,5.1-22.8,10.8-45.8,10.8c-23,0-35.1-5.8-45.8-10.8
		c-10.4-4.9-19.3-9.2-38.5-9.2v-17c23,0,35.1,5.8,45.8,10.8c10.4,4.9,19.3,9.2,38.5,9.2c19.1,0,28.1-4.2,38.5-9.2
		c10.7-5.1,22.8-10.8,45.8-10.8c23,0,35.1,5.8,45.8,10.8c10.4,4.9,19.3,9.2,38.5,9.2c19.2,0,28.1-4.2,38.5-9.2
		C364.9,549.4,377,543.6,400,543.6L400,543.6z"/>
</g>
<g>
	<path fill="#007CBA" d="M737,606.5v17c-19.2,0-28.1,4.2-38.5,9.2c-10.7,5.1-22.8,10.8-45.8,10.8c-23,0-35.1-5.8-45.8-10.8
		c-10.4-4.9-19.3-9.2-38.5-9.2c-19.1,0-28.1,4.2-38.5,9.2c-10.7,5.1-22.8,10.8-45.8,10.8s-35.1-5.8-45.8-10.8
		c-10.4-4.9-19.3-9.2-38.5-9.2v-17c23,0,35.1,5.8,45.8,10.8c10.4,4.9,19.3,9.2,38.5,9.2c19.2,0,28.1-4.2,38.5-9.2
		c10.7-5.1,22.8-10.8,45.8-10.8s35.1,5.8,45.8,10.8c10.4,4.9,19.3,9.2,38.5,9.2c19.1,0,28.1-4.2,38.5-9.2
		C701.9,612.2,714,606.5,737,606.5z"/>
	<path fill="#E63C2F" d="M400,606.5v17h0c-19.1,0-28.1,4.2-38.5,9.2c-10.7,5.1-22.8,10.8-45.8,10.8c-23,0-35.1-5.8-45.8-10.8
		c-10.4-4.9-19.3-9.2-38.5-9.2c-19.2,0-28.1,4.2-38.5,9.2c-10.7,5.1-22.8,10.8-45.8,10.8c-23,0-35.1-5.8-45.8-10.8
		c-10.4-4.9-19.3-9.2-38.5-9.2v-17c23,0,35.1,5.8,45.8,10.8c10.4,4.9,19.3,9.2,38.5,9.2c19.1,0,28.1-4.2,38.5-9.2
		c10.7-5.1,22.8-10.8,45.8-10.8c23,0,35.1,5.8,45.8,10.8c10.4,4.9,19.3,9.2,38.5,9.2c19.2,0,28.1-4.2,38.5-9.2
		C364.9,612.2,377,606.5,400,606.5L400,606.5z"/>
</g>
</svg>
