<?xml version="1.0" encoding="utf-8"?>
<!-- Generator: Adobe Illustrator 18.1.1, SVG Export Plug-In . SVG Version: 6.00 Build 0)  -->
<svg version="1.1" id="Layer_1" xmlns="http://www.w3.org/2000/svg" xmlns:xlink="http://www.w3.org/1999/xlink" x="0px" y="0px"
	 viewBox="-383 145 512 512" enable-background="new -383 145 512 512" xml:space="preserve">
<path id="linkedin-icon" d="M-211.3,276.7c0,22.4-18,40.5-40.2,40.5s-40.2-18.2-40.2-40.5c0-22.4,18-40.5,40.2-40.5
	C-229.3,236.2-211.3,254.4-211.3,276.7z M-217.2,346.1h-68v219.7h68V346.1z M-108.4,346.1h-65.2v219.7h65.2c0,0,0-81.5,0-115.3
	c0-30.9,14.2-49.3,41.4-49.3c25,0,37,17.7,37,49.3c0,31.6,0,115.3,0,115.3h67.7c0,0,0-80.3,0-139.1s-33.4-87.3-79.9-87.3
	s-66.2,36.3-66.2,36.3L-108.4,346.1L-108.4,346.1z"/>
</svg>
