<?xml version="1.0" encoding="utf-8"?>
<!-- Generator: Adobe Illustrator 18.1.1, SVG Export Plug-In . SVG Version: 6.00 Build 0)  -->
<svg version="1.1" id="Layer_1" xmlns="http://www.w3.org/2000/svg" xmlns:xlink="http://www.w3.org/1999/xlink" x="0px" y="0px"
	 viewBox="0 0 800 215.2" enable-background="new 0 0 800 215.2" xml:space="preserve">
<path fill="#231F20" d="M53.9,182.3l-11,27.6H-1l61.2-159h45.2l59.9,159h-44.1l-10.3-27.6H53.9z M82.8,100h-0.4l-17.1,50.6h34.4
	L82.8,100z"/>
<path fill="#231F20" d="M218.1,60.2c0,11.8-9.7,21.5-21.5,21.5c-11.8,0-21.5-9.7-21.5-21.5c0-11.8,9.7-21.5,21.5-21.5
	C208.4,38.7,218.1,48.4,218.1,60.2z M215.8,209.9h-38.4V101.7h38.4V209.9z"/>
<path fill="#231F20" d="M279.5,119.4h0.4c7.4-13.3,20-19.2,35-19.2h7.4v36.9c-5.3-3-10.3-3.6-16.2-3.6c-21.3,0-26.6,14.1-26.6,32.7
	v43.7h-38.4V101.7h38.4V119.4z"/>
<path fill="#231F20" d="M660.4,121.1c-0.4,23.2-2.1,43-16.2,62.9c-15.6,21.7-39,31.2-65.6,31.2c-50,0-84.8-34-84.8-84
	c0-51.7,35-85.6,86.3-85.6c32.7,0,58,14.8,71.7,44.5l-39.2,16.4c-5.7-15.2-17.7-25.3-34.4-25.3c-27.2,0-41.3,25.9-41.3,50.2
	c0,24.7,14.8,49.8,42,49.8c17.9,0,31.6-9.3,33.3-27.6h-33.8v-32.5H660.4z"/>
<g>
	<path fill="#231F20" d="M660.4,121.1c-0.4,23.2-2.1,43-16.2,62.9c-15.6,21.7-39,31.2-65.6,31.2c-50,0-84.8-34-84.8-84
		c0-51.7,35-85.6,86.3-85.6c32.7,0,58,14.8,71.7,44.5l-39.2,16.4c-5.7-15.2-17.7-25.3-34.4-25.3c-27.2,0-41.3,25.9-41.3,50.2
		c0,24.7,14.8,49.8,42,49.8c17.9,0,31.6-9.3,33.3-27.6h-33.8v-32.5H660.4z"/>
</g>
<path fill="#231F20" d="M801,155.9c0,36.7-30.4,57.6-65.2,57.6c-34.6,0-65.2-20.7-65.2-57.6s30.4-57.8,65.2-57.8S801,119,801,155.9z
	 M711.1,155.9c0,13.7,9.1,24.3,24.7,24.3s24.7-10.5,24.7-24.3c0-13.3-9.1-24.5-24.7-24.5S711.1,142.7,711.1,155.9z"/>
<path fill="#007CBA" d="M540.9,0.2c0.1-0.3,0.5-0.2,0.5,0.1c-0.1,14.2-5,27.7-25.6,43.1c-12.1,9.1-40.4,26.6-40.4,63.9v33.1
	c0,20.4-0.9,40.6-16.5,56.1c-13.3,13-34.3,17.7-52.8,17.7v-36.4c26.6,0,28-24.1,28-43.3s0-27.3,0-27.3c0-41.9,22.9-64,61.2-74.1
	C530.7,23.7,539.1,5.9,540.9,0.2z"/>
<path fill="#E63C2F" d="M418.4,43.4c-12.1,9.1-40.4,22.3-40.4,63.9h0v27.3c0,20.8,1.6,43.3,28.1,43.3v36.4
	c-18.6,0-39.6-4.7-52.8-17.7c-15.8-15.5-16.7-37.5-16.7-56.1c0,0,0,3.1,0-37.5c0-38.7,24.4-59.9,61.2-69.7
	c35.4-9.4,43.8-27.3,45.6-33c0.1-0.3,0.5-0.2,0.5,0.1C443.9,14.4,439,27.9,418.4,43.4z"/>
</svg>
